<svg width="51" height="38" viewBox="0 0 51 38" fill="none" xmlns="http://www.w3.org/2000/svg">
<path d="M1.95535 0H20.8205C29.2951 0 36.1484 6.85335 36.1484 15.3279V33.3825L48.9708 20.4127C49.413 19.9705 50.0762 19.9705 50.5184 20.4127C50.9605 20.8548 50.9605 21.5181 50.5184 21.9602L35.043 37.6566L19.5677 21.9602C19.1256 21.5181 19.1256 20.8548 19.5677 20.4127C20.0099 19.9705 20.6731 19.9705 21.1153 20.4127L33.9377 33.3825V15.3279C33.9377 8.10612 28.0423 2.21076 20.8205 2.21076H1.95535C1.36582 2.21076 0.849975 1.69492 0.849975 1.10538C0.849975 0.515844 1.29213 0 1.95535 0Z" fill="black"/>
</svg>
