<svg width="50" height="38" viewBox="0 0 50 38" fill="none" xmlns="http://www.w3.org/2000/svg">
<path d="M48.8946 0H30.0295C21.5549 0 14.7015 6.85335 14.7015 15.3279V33.3825L1.87915 20.4127C1.43699 19.9705 0.773766 19.9705 0.331614 20.4127C-0.110538 20.8548 -0.110538 21.5181 0.331614 21.9602L15.8069 37.6566L31.2822 21.9602C31.7244 21.5181 31.7244 20.8548 31.2822 20.4127C30.8401 19.9705 30.1769 19.9705 29.7347 20.4127L16.9123 33.3825V15.3279C16.9123 8.10612 22.8077 2.21076 30.0295 2.21076H48.8946C49.4842 2.21076 50 1.69492 50 1.10538C50 0.515844 49.5578 0 48.8946 0Z" fill="black"/>
</svg>
